<?xml version="1.0" standalone="no"?>
<!DOCTYPE svg PUBLIC "-//W3C//DTD SVG 20010904//EN"
 "http://www.w3.org/TR/2001/REC-SVG-20010904/DTD/svg10.dtd">
<svg version="1.0" xmlns="http://www.w3.org/2000/svg"
 width="120.000000pt" height="117.000000pt" viewBox="0 0 120.000000 117.000000"
 preserveAspectRatio="xMidYMid meet">

<g transform="translate(0.000000,117.000000) scale(0.100000,-0.100000)"
fill="#000000" stroke="none">
<path d="M32 1113 c1 -37 1 -37 5 -5 l4 32 395 0 c314 0 394 -3 387 -12 -6
-11 -424 -586 -705 -970 l-78 -108 555 0 555 0 -2 38 c-1 36 -1 36 -5 5 l-4
-33 -396 0 -395 0 24 33 c29 37 712 976 746 1025 l23 32 -555 0 -556 0 2 -37z"/>
</g>
</svg>
